<svg width="116" height="116" viewBox="0 0 116 116" fill="none" xmlns="http://www.w3.org/2000/svg">
<path d="M111.916 57.9976C113.707 55.9114 114.963 53.4196 115.573 50.7384C116.184 48.0572 116.131 45.2675 115.419 42.6114C114.707 39.9553 113.358 37.513 111.489 35.4963C109.619 33.4796 107.286 31.9495 104.692 31.0386C105.2 28.3361 105.041 25.5504 104.229 22.9231C103.417 20.2958 101.976 17.9063 100.032 15.9619C98.0873 14.0175 95.6976 12.577 93.0702 11.7653C90.4428 10.9536 87.657 10.7952 84.9545 11.304C84.0444 8.70879 82.5145 6.37498 80.4978 4.50518C78.4811 2.63538 76.0385 1.2861 73.382 0.57448C70.7255 -0.137136 67.9355 -0.189576 65.2541 0.421714C62.5728 1.033 60.0812 2.28955 57.9956 4.08225C55.9094 2.29078 53.4177 1.03537 50.7365 0.424925C48.0552 -0.185521 45.2656 -0.132564 42.6095 0.579197C39.9534 1.29096 37.511 2.64003 35.4943 4.50938C33.4776 6.37873 31.9475 8.71189 31.0367 11.3065C28.3343 10.7986 25.5489 10.9576 22.9219 11.7699C20.2949 12.5821 17.9058 14.023 15.9618 15.9676C14.0177 17.9121 12.5774 20.3016 11.7659 22.9288C10.9543 25.556 10.7959 28.3415 11.3045 31.0437C8.70993 31.9545 6.37675 33.4846 4.5074 35.5013C2.63805 37.518 1.28898 39.9604 0.577213 42.6165C-0.134549 45.2726 -0.187513 48.0622 0.422933 50.7434C1.03338 53.4246 2.28881 55.9164 4.08028 58.0026C2.28827 60.0887 1.03245 62.5807 0.421828 65.2621C-0.188791 67.9436 -0.135781 70.7336 0.576293 73.39C1.28837 76.0463 2.63797 78.4887 4.50796 80.5052C6.37795 82.5218 8.71184 84.0514 11.307 84.9615C10.798 87.6638 10.9562 90.4495 11.7678 93.0768C12.5795 95.7041 14.0202 98.0936 15.9647 100.038C17.9093 101.982 20.2989 103.423 22.9264 104.234C25.5538 105.045 28.3395 105.203 31.0417 104.694C31.9526 107.288 33.4827 109.621 35.4994 111.491C37.5161 113.36 39.9584 114.709 42.6145 115.421C45.2706 116.133 48.0602 116.186 50.7415 115.575C53.4227 114.965 55.9145 113.709 58.0006 111.918C60.0868 113.71 62.5787 114.966 65.2602 115.576C67.9417 116.187 70.7317 116.134 73.388 115.422C76.0443 114.71 78.4868 113.36 80.5033 111.49C82.5198 109.62 84.0495 107.286 84.9596 104.691C87.6619 105.2 90.4477 105.042 93.075 104.23C95.7024 103.418 98.092 101.978 100.036 100.033C101.981 98.0889 103.421 95.6993 104.233 93.072C105.045 90.4446 105.203 87.6589 104.694 84.9565C107.289 84.0459 109.622 82.5158 111.492 80.499C113.361 78.4822 114.71 76.0397 115.422 73.3835C116.133 70.7272 116.186 67.9374 115.575 65.2562C114.964 62.575 113.708 60.0833 111.916 57.9976Z" fill="url(#paint0_linear_263_2155)"/>
<path d="M47.5865 80.1379L31.4689 64.0304C30.8572 63.4177 30.5137 62.5874 30.5137 61.7216C30.5137 60.8559 30.8572 60.0255 31.4689 59.4128L33.4271 57.4522C34.0397 56.8405 34.8701 56.4969 35.7359 56.4969C36.6016 56.4969 37.432 56.8405 38.0447 57.4522L49.7608 69.1608L77.3532 39.839C77.9469 39.2091 78.7663 38.8404 79.6316 38.814C80.4968 38.7876 81.3372 39.1056 81.9682 39.6983L83.9791 41.5961C84.6099 42.1899 84.979 43.0098 85.0054 43.8757C85.0318 44.7416 84.7133 45.5825 84.1199 46.2136L52.282 80.065C51.9822 80.3845 51.6213 80.6404 51.2206 80.8176C50.8199 80.9948 50.3877 81.0896 49.9497 81.0964C49.5116 81.1032 49.0767 81.0219 48.6707 80.8572C48.2647 80.6925 47.896 80.4479 47.5865 80.1379Z" fill="white"/>
<defs>
<linearGradient id="paint0_linear_263_2155" x1="34.3404" y1="14.7698" x2="89.6694" y2="107.112" gradientUnits="userSpaceOnUse">
<stop stop-color="#C5A882"/>
<stop offset="1" stop-color="#A28B6D"/>
</linearGradient>
</defs>
</svg>
